<svg
  viewBox="0 0 20 20"
  xmlns="http://www.w3.org/2000/svg"
>
  <path d="M1.05263 20C0.773456 20 0.505716 19.8946 0.308309 19.7071C0.110902 19.5196 0 19.2652 0 19V1C0 0.734784 0.110902 0.48043 0.308309 0.292893C0.505716 0.105357 0.773456 0 1.05263 0H15.7895C16.0686 0 16.3364 0.105357 16.5338 0.292893C16.7312 0.48043 16.8421 0.734784 16.8421 1V4H14.7368V2H2.10526V18H14.7368V16H16.8421V19C16.8421 19.2652 16.7312 19.5196 16.5338 19.7071C16.3364 19.8946 16.0686 20 15.7895 20H1.05263ZM14.7368 14V11H7.36842V9H14.7368V6L20 10L14.7368 14Z" />
</svg>
